<?xml version="1.0" encoding="utf-8"?>
<!-- Generator: Adobe Illustrator 19.2.0, SVG Export Plug-In . SVG Version: 6.00 Build 0)  -->
<svg version="1.0" xmlns="http://www.w3.org/2000/svg" xmlns:xlink="http://www.w3.org/1999/xlink" x="0px" y="0px"
	 viewBox="0 0 120.8 120.8" style="enable-background:new 0 0 120.8 120.8;" xml:space="preserve">
<style type="text/css">
	.st0{display:none;}
	.st1{display:inline;fill:#1CCEFF;}
	.st2{display:inline;fill:#FFFFFF;}
	.st3{display:inline;}
	.st4{fill:#15E8E6;}
	.st5{fill:#FFFFFF;}
	.st6{display:inline;fill:#0E87E8;}
	.st7{fill:#8EB4FF;}
</style>
<g id="Layer_2" class="st0">
	<path class="st1" d="M94.7,74.9c-0.5-1.6-2.1-2.8-3.8-2.8H70.5l-6.3-19.4c-0.5-1.6-2.1-2.8-3.8-2.8c0,0,0,0,0,0
		c-1.7,0-3.3,1.1-3.8,2.8l-6.4,19.4l-20.4,0c0,0,0,0,0,0c-1.7,0-3.3,1.1-3.8,2.8c-0.5,1.6,0,3.5,1.4,4.5l16.5,12l-6.3,19.4
		c-0.5,1.6,0,3.5,1.4,4.5c0.7,0.5,1.5,0.8,2.4,0.8c0.8,0,1.6-0.3,2.3-0.8l16.6-12l16.5,12c0.7,0.5,1.5,0.8,2.4,0.8
		c0.8,0,1.6-0.3,2.3-0.8c1.4-1,2-2.8,1.5-4.5l-6.3-19.4l16.5-12.1C94.7,78.4,95.3,76.6,94.7,74.9z M72.1,89.9l7.1,22.2L60.4,98.4
		l-18.9,13.7l7.2-22.2L29.8,76.1l23.3,0L60.4,54l7.2,22.2h23.3L72.1,89.9z"/>
	<path class="st1" d="M87.4,43h-8.9V6.5h-4V43H46.3V6.5h-4V43h-8.9V6.5h-4V45c0,1.1,0.9,2,2,2h58c1.1,0,2-0.9,2-2V6.5h-4V43z"/>
</g>
<g id="Layer_2_copy" class="st0">
	<path class="st2" d="M94.7,74.9c-0.5-1.6-2.1-2.8-3.8-2.8H70.5l-6.3-19.4c-0.5-1.6-2.1-2.8-3.8-2.8c0,0,0,0,0,0
		c-1.7,0-3.3,1.1-3.8,2.8l-6.4,19.4l-20.4,0c0,0,0,0,0,0c-1.7,0-3.3,1.1-3.8,2.8c-0.5,1.6,0,3.5,1.4,4.5l16.5,12l-6.3,19.4
		c-0.5,1.6,0,3.5,1.4,4.5c0.7,0.5,1.5,0.8,2.4,0.8c0.8,0,1.6-0.3,2.3-0.8l16.6-12l16.5,12c0.7,0.5,1.5,0.8,2.4,0.8
		c0.8,0,1.6-0.3,2.3-0.8c1.4-1,2-2.8,1.5-4.5l-6.3-19.4l16.5-12.1C94.7,78.4,95.3,76.6,94.7,74.9z M72.1,89.9l7.1,22.2L60.4,98.4
		l-18.9,13.7l7.2-22.2L29.8,76.1l23.3,0L60.4,54l7.2,22.2h23.3L72.1,89.9z"/>
	<path class="st2" d="M87.4,43h-8.9V6.5h-4V43H46.3V6.5h-4V43h-8.9V6.5h-4V45c0,1.1,0.9,2,2,2h58c1.1,0,2-0.9,2-2V6.5h-4V43z"/>
</g>
<g id="Layer_3" class="st0">
	<g class="st3">
		<path class="st4" d="M62.3,115.9c30.7,0,55.5-24.8,55.5-55.5c0-30.7-24.8-55.5-55.5-55.5S6.8,29.7,6.8,60.4
			C6.8,91,31.6,115.9,62.3,115.9z M62.3,8.9c28.4,0,51.5,23.1,51.5,51.5s-23.1,51.5-51.5,51.5S10.8,88.8,10.8,60.4
			S33.9,8.9,62.3,8.9z"/>
		<path class="st4" d="M41,27.1c6.4-4.1,13.7-6.2,21.3-6.2c7.6,0,14.9,2.2,21.3,6.2c0.3,0.2,0.7,0.3,1.1,0.3c0.7,0,1.3-0.3,1.7-0.9
			c0.6-0.9,0.3-2.2-0.6-2.8c-7-4.5-15.1-6.9-23.4-6.9s-16.4,2.4-23.4,6.9c-0.9,0.6-1.2,1.8-0.6,2.8C38.8,27.4,40.1,27.7,41,27.1z"/>
		<path class="st4" d="M83.6,93.7c-6.4,4.1-13.7,6.2-21.3,6.2c-7.6,0-14.9-2.2-21.3-6.2c-0.9-0.6-2.2-0.3-2.8,0.6
			c-0.6,0.9-0.3,2.2,0.6,2.8c7,4.5,15.1,6.9,23.4,6.9s16.4-2.4,23.4-6.9c0.9-0.6,1.2-1.8,0.6-2.8C85.7,93.3,84.5,93.1,83.6,93.7z"/>
		<path class="st4" d="M96.2,84.4c0.3,0.2,0.7,0.3,1.1,0.3c0.7,0,1.3-0.3,1.7-0.9c4.5-7,6.9-15.1,6.9-23.4c0-8.3-2.4-16.4-6.9-23.4
			c-0.6-0.9-1.8-1.2-2.8-0.6c-0.9,0.6-1.2,1.8-0.6,2.8c4.1,6.4,6.2,13.7,6.2,21.3c0,7.6-2.2,14.9-6.2,21.3
			C95,82.6,95.2,83.8,96.2,84.4z"/>
		<path class="st4" d="M27.3,84.8c0.4,0,0.7-0.1,1.1-0.3c0.9-0.6,1.2-1.8,0.6-2.8c-4.1-6.4-6.2-13.7-6.2-21.3
			c0-7.6,2.2-14.9,6.2-21.3c0.6-0.9,0.3-2.2-0.6-2.8c-0.9-0.6-2.2-0.3-2.8,0.6c-4.5,7-6.9,15.1-6.9,23.4c0,8.3,2.4,16.4,6.9,23.4
			C26,84.4,26.7,84.8,27.3,84.8z"/>
		<path class="st4" d="M58.7,42.3l-2.9,8.9l-9.4,0c0,0,0,0,0,0c-1.7,0-3.1,1.1-3.6,2.6c-0.5,1.6,0,3.3,1.4,4.3l7.6,5.6l-2.9,8.9
			c-0.5,1.6,0,3.3,1.4,4.3c0.7,0.5,1.5,0.7,2.3,0.7c0.8,0,1.6-0.2,2.2-0.7l7.6-5.5l7.6,5.5c0.7,0.5,1.5,0.7,2.2,0.7
			c0.8,0,1.6-0.2,2.2-0.7c1.3-1,1.9-2.7,1.4-4.3l-2.9-9l7.6-5.6c1.3-1,1.9-2.7,1.4-4.3c-0.5-1.6-2-2.6-3.6-2.6l-9.4,0l-2.9-8.9
			c-0.5-1.6-2-2.6-3.6-2.6c0,0,0,0,0,0C60.7,39.6,59.2,40.7,58.7,42.3z M66.1,55l12.2,0l-9.9,7.2l3.7,11.6l-9.9-7.2l-9.9,7.1
			l3.8-11.6L46.3,55l12.2,0l3.8-11.6L66.1,55z"/>
	</g>
</g>
<g id="Layer_3_copy">
	<g>
		<path class="st5" d="M62.3,115.9c30.7,0,55.5-24.8,55.5-55.5c0-30.7-24.8-55.5-55.5-55.5S6.8,29.7,6.8,60.4
			C6.8,91,31.6,115.9,62.3,115.9z M62.3,8.9c28.4,0,51.5,23.1,51.5,51.5s-23.1,51.5-51.5,51.5S10.8,88.8,10.8,60.4
			S33.9,8.9,62.3,8.9z"/>
		<path class="st5" d="M41,27.1c6.4-4.1,13.7-6.2,21.3-6.2c7.6,0,14.9,2.2,21.3,6.2c0.3,0.2,0.7,0.3,1.1,0.3c0.7,0,1.3-0.3,1.7-0.9
			c0.6-0.9,0.3-2.2-0.6-2.8c-7-4.5-15.1-6.9-23.4-6.9s-16.4,2.4-23.4,6.9c-0.9,0.6-1.2,1.8-0.6,2.8C38.8,27.4,40.1,27.7,41,27.1z"/>
		<path class="st5" d="M83.6,93.7c-6.4,4.1-13.7,6.2-21.3,6.2c-7.6,0-14.9-2.2-21.3-6.2c-0.9-0.6-2.2-0.3-2.8,0.6
			c-0.6,0.9-0.3,2.2,0.6,2.8c7,4.5,15.1,6.9,23.4,6.9s16.4-2.4,23.4-6.9c0.9-0.6,1.2-1.8,0.6-2.8C85.7,93.3,84.5,93.1,83.6,93.7z"/>
		<path class="st5" d="M96.2,84.4c0.3,0.2,0.7,0.3,1.1,0.3c0.7,0,1.3-0.3,1.7-0.9c4.5-7,6.9-15.1,6.9-23.4c0-8.3-2.4-16.4-6.9-23.4
			c-0.6-0.9-1.8-1.2-2.8-0.6c-0.9,0.6-1.2,1.8-0.6,2.8c4.1,6.4,6.2,13.7,6.2,21.3c0,7.6-2.2,14.9-6.2,21.3
			C95,82.6,95.2,83.8,96.2,84.4z"/>
		<path class="st5" d="M27.3,84.8c0.4,0,0.7-0.1,1.1-0.3c0.9-0.6,1.2-1.8,0.6-2.8c-4.1-6.4-6.2-13.7-6.2-21.3
			c0-7.6,2.2-14.9,6.2-21.3c0.6-0.9,0.3-2.2-0.6-2.8c-0.9-0.6-2.2-0.3-2.8,0.6c-4.5,7-6.9,15.1-6.9,23.4c0,8.3,2.4,16.4,6.9,23.4
			C26,84.4,26.7,84.8,27.3,84.8z"/>
		<path class="st5" d="M58.7,42.3l-2.9,8.9l-9.4,0c0,0,0,0,0,0c-1.7,0-3.1,1.1-3.6,2.6c-0.5,1.6,0,3.3,1.4,4.3l7.6,5.6l-2.9,8.9
			c-0.5,1.6,0,3.3,1.4,4.3c0.7,0.5,1.5,0.7,2.3,0.7c0.8,0,1.6-0.2,2.2-0.7l7.6-5.5l7.6,5.5c0.7,0.5,1.5,0.7,2.2,0.7
			c0.8,0,1.6-0.2,2.2-0.7c1.3-1,1.9-2.7,1.4-4.3l-2.9-9l7.6-5.6c1.3-1,1.9-2.7,1.4-4.3c-0.5-1.6-2-2.6-3.6-2.6l-9.4,0l-2.9-8.9
			c-0.5-1.6-2-2.6-3.6-2.6c0,0,0,0,0,0C60.7,39.6,59.2,40.7,58.7,42.3z M66.1,55l12.2,0l-9.9,7.2l3.7,11.6l-9.9-7.2l-9.9,7.1
			l3.8-11.6L46.3,55l12.2,0l3.8-11.6L66.1,55z"/>
	</g>
</g>
<g id="Layer_4" class="st0">
	<path class="st6" d="M107,21.6c-7.6,0-14,5.6-14.5,12.7c-0.4,4.3,0.9,7.9,3.4,10.3c-0.2,0.3-0.3,0.6-0.4,0.9
		c-6.4,12.4-8.1,15-11,15c-0.3,0-0.6,0-1-0.1c-3.3-0.4-4.6-0.5-14.1-22.1c3.2-2.5,5.1-6.2,5.2-10.3c0.1-3.4-1.2-6.7-3.7-9.3
		c-2.7-2.8-6.5-4.3-10.6-4.3c-4,0-7.9,1.6-10.6,4.3c-2.5,2.5-3.8,5.8-3.7,9.3c0.1,4,2.1,7.8,5.2,10.3c-9.5,21.6-10.8,21.8-14,22.1
		c-0.4,0-0.7,0.1-1,0.1c-3,0-4.6-2.7-11-15c-0.1-0.3-0.3-0.6-0.4-0.9c2.5-2.4,3.7-6,3.4-10.3c-0.6-7.1-7-12.7-14.5-12.7
		c-3.9,0-7.5,1.6-9.8,4.3c-2.2,2.6-3.2,5.9-2.8,9.3C2,40.9,5.7,45.4,10.6,47l6.2,34.1c-3,2.8-4.3,7.3-3.1,12.2
		c1.3,5.6,5.1,9.4,9.5,9.4h74.5c4.4,0,8.2-3.8,9.5-9.4c1.1-4.9-0.1-9.4-3.2-12.2l6.2-34.1c5-1.6,8.7-6.1,9.4-11.9
		c0.5-3.5-0.5-6.8-2.8-9.3C114.5,23.1,110.9,21.6,107,21.6z M115.6,34.6c-0.6,4.8-4,8.7-8.9,9l-6.6,36.6H88.9c-1.1,0-2,0.9-2,2
		s0.9,2,2,2h12.2c0.1,0,0.2,0,0.3,0c4.6,4.5,1,14.5-3.8,14.5H23.1c-5.3,0-9.1-12.4-1.9-15.8l-7.1-39.3c-4.9-0.3-8.3-4.2-8.9-9
		c-0.7-5,3.2-9,8.6-9c5.4,0,10.2,4.1,10.6,9c0.3,4-1.1,7.3-4.6,8.6C27.9,59,30.2,64.5,36.4,64.5c0.4,0,0.9,0,1.4-0.1
		c6-0.7,7.9-2.9,18.7-27.7c-3.6-1.4-6.2-4.8-6.3-8.8c-0.1-5.3,4.4-9.5,10.2-9.5c5.8,0,10.4,4.3,10.2,9.5c-0.1,3.9-2.7,7.3-6.3,8.8
		C75.1,61.6,77,63.8,83,64.5c0.5,0.1,1,0.1,1.4,0.1c6.2,0,8.5-5.5,16.7-21.3c-3.6-1.2-5-4.6-4.6-8.6c0.4-5,5.1-9,10.6-9
		C112.4,25.6,116.3,29.6,115.6,34.6z"/>
</g>
<g id="Layer_4_copy" class="st0">
	<path class="st2" d="M107,21.6c-7.6,0-14,5.6-14.5,12.7c-0.4,4.3,0.9,7.9,3.4,10.3c-0.2,0.3-0.3,0.6-0.4,0.9
		c-6.4,12.4-8.1,15-11,15c-0.3,0-0.6,0-1-0.1c-3.3-0.4-4.6-0.5-14.1-22.1c3.2-2.5,5.1-6.2,5.2-10.3c0.1-3.4-1.2-6.7-3.7-9.3
		c-2.7-2.8-6.5-4.3-10.6-4.3c-4,0-7.9,1.6-10.6,4.3c-2.5,2.5-3.8,5.8-3.7,9.3c0.1,4,2.1,7.8,5.2,10.3c-9.5,21.6-10.8,21.8-14,22.1
		c-0.4,0-0.7,0.1-1,0.1c-3,0-4.6-2.7-11-15c-0.1-0.3-0.3-0.6-0.4-0.9c2.5-2.4,3.7-6,3.4-10.3c-0.6-7.1-7-12.7-14.5-12.7
		c-3.9,0-7.5,1.6-9.8,4.3c-2.2,2.6-3.2,5.9-2.8,9.3C2,40.9,5.7,45.4,10.6,47l6.2,34.1c-3,2.8-4.3,7.3-3.1,12.2
		c1.3,5.6,5.1,9.4,9.5,9.4h74.5c4.4,0,8.2-3.8,9.5-9.4c1.1-4.9-0.1-9.4-3.2-12.2l6.2-34.1c5-1.6,8.7-6.1,9.4-11.9
		c0.5-3.5-0.5-6.8-2.8-9.3C114.5,23.1,110.9,21.6,107,21.6z M115.6,34.6c-0.6,4.8-4,8.7-8.9,9l-6.6,36.6H88.9c-1.1,0-2,0.9-2,2
		s0.9,2,2,2h12.2c0.1,0,0.2,0,0.3,0c4.6,4.5,1,14.5-3.8,14.5H23.1c-5.3,0-9.1-12.4-1.9-15.8l-7.1-39.3c-4.9-0.3-8.3-4.2-8.9-9
		c-0.7-5,3.2-9,8.6-9c5.4,0,10.2,4.1,10.6,9c0.3,4-1.1,7.3-4.6,8.6C27.9,59,30.2,64.5,36.4,64.5c0.4,0,0.9,0,1.4-0.1
		c6-0.7,7.9-2.9,18.7-27.7c-3.6-1.4-6.2-4.8-6.3-8.8c-0.1-5.3,4.4-9.5,10.2-9.5c5.8,0,10.4,4.3,10.2,9.5c-0.1,3.9-2.7,7.3-6.3,8.8
		C75.1,61.6,77,63.8,83,64.5c0.5,0.1,1,0.1,1.4,0.1c6.2,0,8.5-5.5,16.7-21.3c-3.6-1.2-5-4.6-4.6-8.6c0.4-5,5.1-9,10.6-9
		C112.4,25.6,116.3,29.6,115.6,34.6z"/>
</g>
<g id="Layer_5" class="st0">
	<g class="st3">
		<path class="st7" d="M30.2,96.3c0.1-0.1,0.1-0.1,0.2-0.2c5.1,6.7,11.8,12,19.5,15.4c0.3,0.1,0.5,0.2,0.8,0.2
			c0.8,0,1.5-0.4,1.8-1.2c0.4-1,0-2.2-1-2.6c-6.2-2.7-11.6-6.8-16-11.9c3.4-0.1,6.5-1.5,8.9-4.1c4-4.2,5.4-10.7,5.1-15
			c-0.1-1.9-1.6-3.4-3.4-3.7C45.2,73,44.4,73,43.6,73c-5.2,0-10.2,2.2-13.2,5.9c-1,1.2-2,2.8-2.6,4.9c-0.1-0.1-0.2-0.3-0.4-0.4
			c-1.2-2.7-2.2-5.5-3-8.5c-0.1-0.4-0.2-0.8-0.3-1.2c1.7,0.8,3.5,1.2,5.2,1.2c8.7,0,14-9.6,14.5-16.5c0.1-1.8-0.9-3.4-2.6-4
			c-1.9-0.7-4-1-6-1c-4.5,0-8.4,1.6-11.2,4.5c-0.4,0.5-0.9,1-1.3,1.7c0.1-3.7,0.6-7.3,1.4-10.8c2.4,1.7,4.9,2.6,7.5,2.6
			c8.2,0,13.6-8.7,14.6-14.5c0.3-1.7-0.5-3.4-2.1-4.2c-2-1.1-4.4-1.7-6.7-2c0.3-0.4,0.6-0.7,0.8-1.1c3.3-5.5,2.8-13.2,0.6-18
			c-0.7-1.4-2.1-2.3-3.6-2.3c-0.3,0-0.7,0-1,0.1c-5.4,1.4-10.2,5.5-12.1,10.4c-0.6,1.6-1,3.4-1,5.1c-2.1-1.8-4.7-3.1-7.4-3.8
			c-0.3-0.1-0.6-0.1-1-0.1c-1.6,0-3,0.9-3.7,2.4c-2.1,4.8-2.5,12.5,0.9,17.9c1.6,2.6,4.7,5.6,10.3,6c-0.7,2.8-1.2,5.7-1.4,8.6
			c-3-3-7.3-4.7-11.9-4.7c-0.9,0-1.8,0.1-2.6,0.2c-1.8,0.3-3.2,1.8-3.4,3.6c-0.3,4.2,1.1,10.7,5,15c2.5,2.7,5.6,4.1,9,4.1
			c1.6,0,3.2-0.3,4.8-0.9c0.2,1,0.4,1.9,0.7,2.9c0.4,1.4,0.8,2.7,1.2,4.1c-1.6-0.5-3.3-0.8-5.1-0.8h0c-3.2,0-6.5,0.9-9.2,2.4
			C6,82.5,5.3,84.3,5.6,86c1.3,5.8,7.4,13.9,15.6,13.9C24.4,99.9,27.5,98.6,30.2,96.3z M43.6,77c0.6,0,1.2,0,1.8,0.1
			c0.4,5.4-2.9,14.8-10.2,14.8c-1.1,0-2.3-0.2-3.6-0.7C29.6,81.6,37.1,77,43.6,77z M35.3,57.4c1.6,0,3.2,0.3,4.7,0.8
			c-0.3,5-4.3,12.8-10.5,12.8c-1.6,0-3.2-0.5-5.1-1.6C23.8,60.9,29.6,57.4,35.3,57.4z M42.4,36.1c-0.8,4.6-5,11.2-10.7,11.2
			c-1.8,0-3.8-0.7-5.9-2.4c0.3-7.5,5.1-10.4,10.1-10.4C38.2,34.5,40.4,35.1,42.4,36.1z M35.3,13.2c2.6,5.6,2.5,18-8,18.4
			C21.6,22.7,28.6,14.9,35.3,13.2z M18.8,69.3c-1.3,0.5-2.6,0.7-3.7,0.7c-7.2,0-10.4-9.4-10-14.7c0.6-0.1,1.3-0.1,2-0.1
			C13.6,55.1,20.9,59.7,18.8,69.3z M21.3,43.3C10.8,42.9,10.4,30.6,12.9,25c5.5,1.4,11.3,6.8,10.3,13.5c-0.4,1-0.8,2.1-1,3.2
			C21.9,42.2,21.6,42.8,21.3,43.3z M9.5,85.1c2-1.2,4.6-1.9,7.2-1.9c5.1,0,10.2,2.8,10.8,10c-2.1,1.9-4.3,2.6-6.3,2.6
			C15.4,95.9,10.5,89.6,9.5,85.1z"/>
		<path class="st7" d="M100.8,73.1c1.6,0.6,3.3,0.9,4.8,0.9c3.4,0,6.6-1.4,9-4.1c3.9-4.2,5.3-10.7,5-15c-0.1-1.8-1.5-3.3-3.4-3.6
			c-0.8-0.1-1.7-0.2-2.6-0.2c-4.6,0-8.9,1.7-11.9,4.7c-0.3-2.9-0.7-5.8-1.4-8.6c5.6-0.4,8.7-3.5,10.3-6c3.4-5.4,3.1-13.1,0.9-17.9
			c-0.7-1.5-2.1-2.4-3.7-2.4c-0.3,0-0.6,0-1,0.1c-2.7,0.7-5.3,2-7.4,3.8c0-1.7-0.3-3.4-1-5.1c-1.9-5-6.7-9-12.1-10.4
			c-0.3-0.1-0.7-0.1-1-0.1c-1.5,0-3,0.9-3.6,2.3c-2.2,4.8-2.8,12.5,0.6,18c0.2,0.4,0.5,0.8,0.8,1.1c-2.3,0.2-4.6,0.9-6.7,2
			c-1.5,0.8-2.4,2.5-2.1,4.2c1,5.9,6.4,14.5,14.6,14.5c2.6,0,5.1-0.9,7.5-2.6c0.8,3.5,1.3,7.2,1.4,10.8c-0.4-0.6-0.9-1.2-1.3-1.7
			C94,55,90,53.4,85.5,53.4c0,0,0,0,0,0c-2.1,0-4.1,0.4-6,1c-1.7,0.6-2.7,2.3-2.6,4C77.4,65.4,82.7,75,91.4,75
			c1.7,0,3.5-0.4,5.2-1.2c-0.1,0.4-0.2,0.8-0.3,1.2c-0.8,3-1.8,5.8-3,8.5c-0.1,0.1-0.3,0.2-0.4,0.4c-0.6-2.1-1.6-3.7-2.6-4.9
			c-3-3.7-7.9-5.9-13.2-5.9h0c-0.8,0-1.6,0.1-2.4,0.2c-1.9,0.3-3.3,1.8-3.4,3.7c-0.3,4.2,1.2,10.7,5.1,15c2.5,2.6,5.5,4.1,8.9,4.1
			c-4.4,5.1-9.9,9.2-16,11.9c-1,0.4-1.5,1.6-1,2.6c0.3,0.8,1.1,1.2,1.8,1.2c0.3,0,0.5-0.1,0.8-0.2c7.7-3.4,14.3-8.7,19.5-15.4
			c0.1,0.1,0.1,0.1,0.2,0.2c2.7,2.4,5.8,3.6,8.9,3.6c8.2,0,14.3-8.1,15.6-13.9c0.4-1.7-0.4-3.4-1.9-4.3c-2.7-1.6-6-2.4-9.2-2.4
			c-1.8,0-3.5,0.3-5.1,0.8c0.4-1.3,0.9-2.7,1.2-4.1C100.4,75,100.6,74.1,100.8,73.1z M113.7,55.1c0.7,0,1.3,0,2,0.1
			c0.4,5.4-2.7,14.7-10,14.7c-1.1,0-2.4-0.2-3.7-0.7C99.9,59.7,107.2,55.1,113.7,55.1z M89.1,47.4c-5.7,0-9.9-6.6-10.7-11.2
			c1.9-1,4.2-1.6,6.5-1.6c5,0,9.9,2.9,10.1,10.4C92.9,46.7,90.9,47.4,89.1,47.4z M93.4,31.6c-10.5-0.4-10.6-12.8-8-18.4
			C92.2,14.9,99.2,22.7,93.4,31.6z M96.4,69.4c-1.8,1.1-3.5,1.6-5.1,1.6c-6.2,0-10.1-7.7-10.5-12.8c1.4-0.5,3-0.8,4.7-0.8
			C91.2,57.4,97,60.9,96.4,69.4z M89.2,91.2c-1.3,0.5-2.5,0.7-3.6,0.7c-7.3,0-10.6-9.4-10.2-14.8c0.6-0.1,1.2-0.1,1.8-0.1
			C83.7,77,91.2,81.6,89.2,91.2z M104.1,83.2c2.6,0,5.1,0.7,7.2,1.9c-1,4.5-5.9,10.8-11.7,10.8c-2,0-4.2-0.8-6.3-2.6
			C93.9,86,98.9,83.2,104.1,83.2z M98.6,41.7c-0.2-1.2-0.6-2.2-1-3.2c-1.1-6.8,4.8-12.2,10.3-13.5c2.5,5.6,2.1,18-8.4,18.3
			C99.2,42.8,98.9,42.2,98.6,41.7z"/>
	</g>
</g>
<g id="Layer_5_copy" class="st0">
	<g class="st3">
		<path class="st5" d="M30.2,96.3c0.1-0.1,0.1-0.1,0.2-0.2c5.1,6.7,11.8,12,19.5,15.4c0.3,0.1,0.5,0.2,0.8,0.2
			c0.8,0,1.5-0.4,1.8-1.2c0.4-1,0-2.2-1-2.6c-6.2-2.7-11.6-6.8-16-11.9c3.4-0.1,6.5-1.5,8.9-4.1c4-4.2,5.4-10.7,5.1-15
			c-0.1-1.9-1.6-3.4-3.4-3.7C45.2,73,44.4,73,43.6,73c-5.2,0-10.2,2.2-13.2,5.9c-1,1.2-2,2.8-2.6,4.9c-0.1-0.1-0.2-0.3-0.4-0.4
			c-1.2-2.7-2.2-5.5-3-8.5c-0.1-0.4-0.2-0.8-0.3-1.2c1.7,0.8,3.5,1.2,5.2,1.2c8.7,0,14-9.6,14.5-16.5c0.1-1.8-0.9-3.4-2.6-4
			c-1.9-0.7-4-1-6-1c-4.5,0-8.4,1.6-11.2,4.5c-0.4,0.5-0.9,1-1.3,1.7c0.1-3.7,0.6-7.3,1.4-10.8c2.4,1.7,4.9,2.6,7.5,2.6
			c8.2,0,13.6-8.7,14.6-14.5c0.3-1.7-0.5-3.4-2.1-4.2c-2-1.1-4.4-1.7-6.7-2c0.3-0.4,0.6-0.7,0.8-1.1c3.3-5.5,2.8-13.2,0.6-18
			c-0.7-1.4-2.1-2.3-3.6-2.3c-0.3,0-0.7,0-1,0.1c-5.4,1.4-10.2,5.5-12.1,10.4c-0.6,1.6-1,3.4-1,5.1c-2.1-1.8-4.7-3.1-7.4-3.8
			c-0.3-0.1-0.6-0.1-1-0.1c-1.6,0-3,0.9-3.7,2.4c-2.1,4.8-2.5,12.5,0.9,17.9c1.6,2.6,4.7,5.6,10.3,6c-0.7,2.8-1.2,5.7-1.4,8.6
			c-3-3-7.3-4.7-11.9-4.7c-0.9,0-1.8,0.1-2.6,0.2c-1.8,0.3-3.2,1.8-3.4,3.6c-0.3,4.2,1.1,10.7,5,15c2.5,2.7,5.6,4.1,9,4.1
			c1.6,0,3.2-0.3,4.8-0.9c0.2,1,0.4,1.9,0.7,2.9c0.4,1.4,0.8,2.7,1.2,4.1c-1.6-0.5-3.3-0.8-5.1-0.8h0c-3.2,0-6.5,0.9-9.2,2.4
			C6,82.5,5.3,84.3,5.6,86c1.3,5.8,7.4,13.9,15.6,13.9C24.4,99.9,27.5,98.6,30.2,96.3z M43.6,77c0.6,0,1.2,0,1.8,0.1
			c0.4,5.4-2.9,14.8-10.2,14.8c-1.1,0-2.3-0.2-3.6-0.7C29.6,81.6,37.1,77,43.6,77z M35.3,57.4c1.6,0,3.2,0.3,4.7,0.8
			c-0.3,5-4.3,12.8-10.5,12.8c-1.6,0-3.2-0.5-5.1-1.6C23.8,60.9,29.6,57.4,35.3,57.4z M42.4,36.1c-0.8,4.6-5,11.2-10.7,11.2
			c-1.8,0-3.8-0.7-5.9-2.4c0.3-7.5,5.1-10.4,10.1-10.4C38.2,34.5,40.4,35.1,42.4,36.1z M35.3,13.2c2.6,5.6,2.5,18-8,18.4
			C21.6,22.7,28.6,14.9,35.3,13.2z M18.8,69.3c-1.3,0.5-2.6,0.7-3.7,0.7c-7.2,0-10.4-9.4-10-14.7c0.6-0.1,1.3-0.1,2-0.1
			C13.6,55.1,20.9,59.7,18.8,69.3z M21.3,43.3C10.8,42.9,10.4,30.6,12.9,25c5.5,1.4,11.3,6.8,10.3,13.5c-0.4,1-0.8,2.1-1,3.2
			C21.9,42.2,21.6,42.8,21.3,43.3z M9.5,85.1c2-1.2,4.6-1.9,7.2-1.9c5.1,0,10.2,2.8,10.8,10c-2.1,1.9-4.3,2.6-6.3,2.6
			C15.4,95.9,10.5,89.6,9.5,85.1z"/>
		<path class="st5" d="M100.8,73.1c1.6,0.6,3.3,0.9,4.8,0.9c3.4,0,6.6-1.4,9-4.1c3.9-4.2,5.3-10.7,5-15c-0.1-1.8-1.5-3.3-3.4-3.6
			c-0.8-0.1-1.7-0.2-2.6-0.2c-4.6,0-8.9,1.7-11.9,4.7c-0.3-2.9-0.7-5.8-1.4-8.6c5.6-0.4,8.7-3.5,10.3-6c3.4-5.4,3.1-13.1,0.9-17.9
			c-0.7-1.5-2.1-2.4-3.7-2.4c-0.3,0-0.6,0-1,0.1c-2.7,0.7-5.3,2-7.4,3.8c0-1.7-0.3-3.4-1-5.1c-1.9-5-6.7-9-12.1-10.4
			c-0.3-0.1-0.7-0.1-1-0.1c-1.5,0-3,0.9-3.6,2.3c-2.2,4.8-2.8,12.5,0.6,18c0.2,0.4,0.5,0.8,0.8,1.1c-2.3,0.2-4.6,0.9-6.7,2
			c-1.5,0.8-2.4,2.5-2.1,4.2c1,5.9,6.4,14.5,14.6,14.5c2.6,0,5.1-0.9,7.5-2.6c0.8,3.5,1.3,7.2,1.4,10.8c-0.4-0.6-0.9-1.2-1.3-1.7
			C94,55,90,53.4,85.5,53.4c0,0,0,0,0,0c-2.1,0-4.1,0.4-6,1c-1.7,0.6-2.7,2.3-2.6,4C77.4,65.4,82.7,75,91.4,75
			c1.7,0,3.5-0.4,5.2-1.2c-0.1,0.4-0.2,0.8-0.3,1.2c-0.8,3-1.8,5.8-3,8.5c-0.1,0.1-0.3,0.2-0.4,0.4c-0.6-2.1-1.6-3.7-2.6-4.9
			c-3-3.7-7.9-5.9-13.2-5.9h0c-0.8,0-1.6,0.1-2.4,0.2c-1.9,0.3-3.3,1.8-3.4,3.7c-0.3,4.2,1.2,10.7,5.1,15c2.5,2.6,5.5,4.1,8.9,4.1
			c-4.4,5.1-9.9,9.2-16,11.9c-1,0.4-1.5,1.6-1,2.6c0.3,0.8,1.1,1.2,1.8,1.2c0.3,0,0.5-0.1,0.8-0.2c7.7-3.4,14.3-8.7,19.5-15.4
			c0.1,0.1,0.1,0.1,0.2,0.2c2.7,2.4,5.8,3.6,8.9,3.6c8.2,0,14.3-8.1,15.6-13.9c0.4-1.7-0.4-3.4-1.9-4.3c-2.7-1.6-6-2.4-9.2-2.4
			c-1.8,0-3.5,0.3-5.1,0.8c0.4-1.3,0.9-2.7,1.2-4.1C100.4,75,100.6,74.1,100.8,73.1z M113.7,55.1c0.7,0,1.3,0,2,0.1
			c0.4,5.4-2.7,14.7-10,14.7c-1.1,0-2.4-0.2-3.7-0.7C99.9,59.7,107.2,55.1,113.7,55.1z M89.1,47.4c-5.7,0-9.9-6.6-10.7-11.2
			c1.9-1,4.2-1.6,6.5-1.6c5,0,9.9,2.9,10.1,10.4C92.9,46.7,90.9,47.4,89.1,47.4z M93.4,31.6c-10.5-0.4-10.6-12.8-8-18.4
			C92.2,14.9,99.2,22.7,93.4,31.6z M96.4,69.4c-1.8,1.1-3.5,1.6-5.1,1.6c-6.2,0-10.1-7.7-10.5-12.8c1.4-0.5,3-0.8,4.7-0.8
			C91.2,57.4,97,60.9,96.4,69.4z M89.2,91.2c-1.3,0.5-2.5,0.7-3.6,0.7c-7.3,0-10.6-9.4-10.2-14.8c0.6-0.1,1.2-0.1,1.8-0.1
			C83.7,77,91.2,81.6,89.2,91.2z M104.1,83.2c2.6,0,5.1,0.7,7.2,1.9c-1,4.5-5.9,10.8-11.7,10.8c-2,0-4.2-0.8-6.3-2.6
			C93.9,86,98.9,83.2,104.1,83.2z M98.6,41.7c-0.2-1.2-0.6-2.2-1-3.2c-1.1-6.8,4.8-12.2,10.3-13.5c2.5,5.6,2.1,18-8.4,18.3
			C99.2,42.8,98.9,42.2,98.6,41.7z"/>
	</g>
</g>
</svg>
