<?xml version="1.0" encoding="utf-8"?>
<!-- Generator: Adobe Illustrator 19.2.0, SVG Export Plug-In . SVG Version: 6.00 Build 0)  -->
<svg version="1.0" id="Layer_1" xmlns="http://www.w3.org/2000/svg" xmlns:xlink="http://www.w3.org/1999/xlink" x="0px" y="0px"
	 viewBox="0 0 112.8 36.2" style="enable-background:new 0 0 112.8 36.2;" xml:space="preserve">
<style type="text/css">
	.st0{fill:#1CCFFF;}
</style>
<path class="st0" d="M110.7,2.5v30.7h-6.3V2.5H110.7z"/>
<path class="st0" d="M98.3,2.5v30.7H92V2.5H98.3z"/>
<path class="st0" d="M86.2,25.6v7.5h-5.3c0.2-0.1,0.3-0.2,0.4-0.3c1.2-0.8,2.2-1.9,3-3.1C85.1,28.6,85.8,27.2,86.2,25.6z"/>
<path class="st0" d="M82.5,13c-0.8-0.5-1.7-0.7-2.6-0.7c-1.8,0-3.7,0.8-4.9,1.4c-1.8,0.9-3.6,2.2-5,3.7c-0.7,0.7-1.4,1.5-1.8,2.2
	c-0.5,0.8-0.9,1.6-1.1,2.4c-1.1,3.6,0.1,7.4,3.4,9.4c2,1.2,4.3,1.6,6.6,1.1c0.7-0.2,1.3-0.4,1.9-0.7c0.5-0.2,0.9-0.5,1.3-0.8
	c0.9-0.6,1.6-1.4,2.2-2.4C85.3,24.4,86.4,15.5,82.5,13z"/>
<path class="st0" d="M76.9,10.6c0.2,0,0.4,0,0.6,0c-3.3,0.8-6.7,3-9.1,5.5l-1.6-2.3C69.6,11.6,73,10.6,76.9,10.6z"/>
<path class="st0" d="M61.2,19.7v13.5h-6.4V21c0-3.4-1.3-5.1-3.8-5.1c-1.3,0-2.4,0.4-3.3,1.3c-0.9,0.9-1.4,2.2-1.4,3.9v12h-6.4V21
	c0-1.8-0.3-3.1-0.8-3.9c-0.6-0.8-1.4-1.2-2.7-1.2c-1.2,0-2.3,0.4-3.3,1.3c-0.9,0.9-1.4,2.2-1.4,3.9v12h-6.3V10.9h6.3v2.5
	c1.7-1.9,3.7-2.9,6-2.9c1.4,0,2.7,0.4,3.9,1.2c1.2,0.8,2,1.8,2.6,3c0.9-1.3,2-2.4,3.5-3.1c1.5-0.7,3-1.1,4.5-1.1
	c2.7,0,4.8,0.8,6.5,2.3C60.4,14.4,61.2,16.7,61.2,19.7z"/>
<path class="st0" d="M20.2,13.2l-2.4,4.1c-2-1.3-3.9-2-5.9-2c-2,0-2.9,0.5-2.9,1.6c0,0.6,0.3,1,0.9,1.4c0.6,0.3,1.6,0.7,3.1,1.2
	c1.4,0.4,2.5,0.8,3.1,1c0.6,0.2,1.3,0.6,2.2,1.1c1.6,0.9,2.4,2.5,2.4,4.7c0,2.2-0.8,3.9-2.5,5.3c-1.6,1.3-3.7,2-6.3,2
	c-1.7,0-3.4-0.3-5.3-0.9S3.1,31.1,1.7,30l2.8-3.9c2.4,1.8,4.9,2.7,7.6,2.7c0.8,0,1.5-0.2,1.9-0.5c0.5-0.3,0.7-0.7,0.7-1.3
	c0-0.5-0.3-1-1-1.4c-0.7-0.4-1.6-0.9-2.9-1.2c-1.3-0.4-2.2-0.7-2.9-1c-0.7-0.3-1.4-0.7-2.3-1.2c-1.7-1-2.6-2.6-2.6-4.7
	c0-2.1,0.8-3.7,2.5-5c1.7-1.3,3.9-1.9,6.5-1.9C14.8,10.6,17.5,11.4,20.2,13.2z"/>
</svg>
