<?xml version="1.0" encoding="utf-8"?>
<!-- Generator: Adobe Illustrator 19.2.0, SVG Export Plug-In . SVG Version: 6.00 Build 0)  -->
<svg version="1.0" id="Layer_1" xmlns="http://www.w3.org/2000/svg" xmlns:xlink="http://www.w3.org/1999/xlink" x="0px" y="0px"
	 viewBox="0 0 109 31" style="enable-background:new 0 0 109 31;" xml:space="preserve">
<style type="text/css">
	.st0{fill:#FFFFFF;}
</style>
<path class="st0" d="M109,0v30.7h-6.3V0H109z"/>
<path class="st0" d="M96.7,0v30.7h-6.3V0H96.7z"/>
<path class="st0" d="M84.6,23.1v7.5h-5.3c0.2-0.1,0.3-0.2,0.4-0.3c1.2-0.8,2.2-1.9,3-3.1C83.4,26.1,84.1,24.7,84.6,23.1z"/>
<path class="st0" d="M80.7,10.4c-0.8-0.5-1.7-0.7-2.6-0.7c-1.8,0-3.7,0.8-4.9,1.4c-1.7,0.9-3.4,2.2-4.7,3.5c0,0,0,0,0,0
	c0,0,0,0.1-0.1,0.1c0,0-0.1,0.1-0.1,0.1c0,0,0,0,0.1,0c-0.7,0.7-1.4,1.7-1.8,2.4c-0.5,0.8-0.8,1.6-1.1,2.3c0,0,0,0,0,0.1
	c-1.2,3.6,0.1,7.3,3.4,9.4c2,1.2,4.3,1.6,6.6,1.1c0.7-0.1,1.6-0.4,2.1-0.8c0.5-0.3,1.1-0.8,1.1-0.8c0.8-0.7,1.6-1.5,2.2-2.4
	C83.5,21.7,84.6,12.9,80.7,10.4z"/>
<path class="st0" d="M75.2,8.1c0.2,0,0.4,0,0.6,0c-3.3,0.8-6.7,3-9.1,5.5L65,11.2C68,9.1,71.4,8.1,75.2,8.1z"/>
<path class="st0" d="M59.5,17.2v13.5h-6.4V18.5c0-3.4-1.3-5.1-3.8-5.1c-1.3,0-2.4,0.4-3.3,1.3c-0.9,0.9-1.4,2.2-1.4,3.9v12h-6.4
	V18.5c0-1.8-0.3-3.1-0.8-3.9c-0.6-0.8-1.4-1.2-2.7-1.2c-1.2,0-2.3,0.4-3.3,1.3c-0.9,0.9-1.4,2.2-1.4,3.9v12h-6.3V8.4H30V11
	c1.7-1.9,3.7-2.9,6-2.9c1.4,0,2.7,0.4,3.9,1.2s2,1.8,2.6,3c0.9-1.3,2-2.4,3.5-3.1c1.5-0.7,3-1.1,4.5-1.1c2.7,0,4.8,0.8,6.5,2.3
	C58.7,11.9,59.5,14.2,59.5,17.2z"/>
<path class="st0" d="M18.5,10.3l-2.4,4.1c-2-1.3-3.9-2-5.9-2S7.3,12.9,7.3,14c0,0.6,0.3,1,0.9,1.4c0.6,0.3,1.6,0.7,3.1,1.2
	c1.4,0.4,2.5,0.8,3.1,1s1.3,0.6,2.2,1.1c1.6,0.9,2.4,2.5,2.4,4.7s-0.8,3.9-2.5,5.3c-1.6,1.3-3.7,2-6.3,2c-1.7,0-3.4-0.3-5.3-0.9
	c-1.8-0.6-3.5-1.5-4.9-2.6l2.8-3.9c2.4,1.8,4.9,2.7,7.6,2.7c0.8,0,1.5-0.2,1.9-0.5c0.5-0.3,0.7-0.7,0.7-1.3c0-0.5-0.3-1-1-1.4
	s-1.6-0.9-2.9-1.2c-1.3-0.4-2.2-0.7-2.9-1s-1.4-0.7-2.3-1.2c-1.7-1-2.6-2.6-2.6-4.7s0.8-3.7,2.5-5s3.9-1.9,6.5-1.9
	C13.2,7.7,15.9,8.5,18.5,10.3z"/>
</svg>
